<svg xmlns="http://www.w3.org/2000/svg" width="227" height="192" fill="none"><g clip-path="url(#a)"><mask id="b" width="227" height="192" x="0" y="0" maskUnits="userSpaceOnUse" style="mask-type:alpha"><path fill="#fff" d="m48.8322.2417 177.8568 71.719-48.254 119.6663L.57796 119.908 48.8322.2417Z"/></mask><g fill-rule="evenodd" clip-rule="evenodd" mask="url(#b)"><path fill="#FFFFFE" d="M210.569 99.249c-.025-.017-.049-.0278-.074-.0487-.057-.0493-.108-.1049-.153-.1655.123.0241.233.0592.246.1244.006.0296-.003.0599-.019.0898Zm10.771-14.7065.005-.19-.022-.1882c-.061-.5483-.448-2.3788-2.813-2.9023-.386-.0856-.776-.1639-1.164-.2426l-.221-.0446c-.925-.1877-5.079-.9554-6.356-1.1467-.333-.0508-.97-.162-1.706-.291-2.144-.3767-3.72-.6461-4.451-.6895-.359-.0211-.76-.074-1.182-.13-.257-.0341-.513-.0677-.769-.097-.919-.1036-1.72.0802-2.518.5784-.24.151-.466.3224-.677.5122-.153-.2892-.328-.5657-.525-.827-.843-1.1043-2.424-1.748-2.491-1.7752-.615-.2471-2.105-.69-2.713-.7828-.557-.0855-1.871-.2017-2.851-.0256-.759.1367-2.783.8805-3.679 1.6367-.16.1346-.313.2762-.458.4231-.132-.3506-.296-.6885-.489-1.0094-.86-1.4189-2.197-2.0413-3.131-2.3872-.279-.1035-.702-.2623-1.201-.3314-.131-.0209-.623-.1098-.792-.1479-.091-.0201-.227-.0484-.606-.1157-.29-.6601-.591-1.315-.904-1.9646l.734-.641-.804-1.8695c-2.315-5.3844-5.942-9.7709-9.458-13.8023-10.038-11.5092-23.411-18.3633-39.736-20.3719-7.865-.9681-18.771.6556-29.175 4.3421-4.9555 1.7561-16.6008 6.4677-20.0485 12.9899a62.84544 62.84544 0 0 0-8.4202 9.2696c-.8025-.3752-2.0615-.578-3.5966.4999l-.045.0306c-.2839.1959-.5117.3386-.717.448-.4723.2515-.841.4111-1.1404.4937l-.0772-.1599c-1.0494-2.1904-2.2843-4.0811-3.6689-5.6194a47.84999 47.84999 0 0 0-1.9893-2.0822c-.7198-.7079-1.545-1.2042-2.2075-1.6029l-.2281-.1372c-.8743-.5314-1.7354-.8181-2.4951-1.0722-.2296-.0766-.4595-.1526-.6866-.2372-.8351-.3117-1.7132-.5496-2.7622-.7477-2.4822-.472-4.8991-.31-7.156-.0709-1.3508.1437-2.5735.2882-3.8523.6119-1.2108.3062-2.397.7026-3.5489 1.186-2.3985 1.0089-4.5244 2.3545-6.4953 3.6451-.5007.3285-1.0821.7177-1.6431 1.1889-.4382.3682-.8146.7503-1.1473 1.088-.1033.1046-.2062.2099-.3129.3159-.2347.2324-.4807.4548-.7247.6773-.2748.249-.5494.4995-.8147.7594-1.3096 1.2802-2.7709 3.1054-4.3444 5.4262-1.0052 1.483-1.704 2.7889-2.4456 4.1714-.198.3705-.4022.751-.6197 1.1491a31.23379 31.23379 0 0 0-2.6893 6.6039c-.3297 1.1881-.6146 2.4388-.8473 3.7189-.0371.2023-.1335.6617-.2395 1.171-.2184 1.0499-.3663 1.7663-.4253 2.142-.206 1.3049-.2219 2.5555-.2204 3.8284.0017 1.3189.048 2.3963.146 3.3886.272 2.7504.9895 5.2712 2.1324 7.4913.5481 1.065 1.1026 1.995 1.6937 2.843.7321 1.051 1.4713 2.071 2.4625 3.002 1.9082 1.792 4.0003 2.937 5.7954 3.821 2.0136.991 4.2401 1.644 6.8026 2.001.6017.083 1.204.159 1.8069.221.3228.033.6232.033 2.4595-.118a.07437.07437 0 0 1-.0072.015l-.0292.058c-.1684.328-.519 1.012-.5052 1.906.0216 1.468.9222 2.739 2.2411 3.163.1113.036.2511.074.4133.102.8355.147 2.2787.06 3.5805-1.699l.4779-.642c.6253-.839 1.6784-2.254 2.1858-2.94.5699-.772 1.0527-1.528 1.5192-2.26.1891-.297.3793-.596.5779-.897.1642-.251.9924-1.341 1.3909-1.866l.2883-.381c.2088.674.4733 1.329.7907 1.959.3703.739.9584 1.832 1.7821 2.799.8957 1.05 1.8902 1.819 2.6581 2.372 1.0151.73 1.8835 1.264 2.7336 1.68.4218.206 1.3298.613 2.0536.819l.446.132c.4483.134.8977.264 1.3481.391a62.87056 62.87056 0 0 0 3.4768 9.251c1.9415 5.765 5.353 11.261 10.7243 17.279 9.5431 10.694 21.1317 17.275 34.5387 19.634 2.79.49 5.66.799 8.605.923 17.03.719 32.171-4.737 45.005-16.216 2.565-2.294 5.472-4.894 6.837-9.029l.008-.026c.698-.869 1.372-1.757 2.022-2.663 2.591.432 5.837.962 6.818 1.08.636.077 1.256.157 1.839.276.313.064.626.118.938.171.395.067.764.128 1.075.212.998.269 2.006.498 3.022.686.9.184 1.648.054 2.234-.168.171.187.355.362.559.516.572.425 1.235.708 1.937.827 1.619.286 3.395-.245 4.505-1.505 1.018-1.157 1.515-2.623 1.333-3.921-.157-1.119-.779-2.076-1.751-2.695-.457-.29-.962-.497-1.491-.612 1.279-2.193 1.967-3.629 2.046-4.273.162-1.346-.543-2.59-1.699-3.141-1.366-.794-3.287-.73-4.761 1.171-.705.74-4.391 3.256-5.465 3.785-.643.319-1.304.6-1.979.842-.475.169-.849.279-1.135.27-.491-.015-1.037-.102-1.699-.213-.247-.042-.559-.093-.88-.145l.036-.088c.107-.273.282-.597.468-.939.086-.157.171-.315.253-.473.207-.388 1.614-2.695 2.544-4.22l.636-1.044c.023.446.136.882.332 1.282.206.429.505.806.874 1.106.369.3.799.514 1.261.628.982.243 2.033.018 2.889-.614.926-.687 1.468-1.616 1.864-2.294.071-.121.139-.24.208-.349.279-.446.562-.888.846-1.329.183-.285.366-.568.547-.855.228-.358.485-.725.758-1.114.574-.821 1.226-1.752 1.732-2.816l.021-.042c.271-.566.99-2.068.202-3.597-.199-.39-.479-.732-.82-1.006-.342-.274-.737-.472-1.16-.581-.699-.181-1.327-.091-1.831.076.214-.289.395-.531.526-.708.212-.282.417-.569.622-.856.222-.311.444-.621.676-.924.174-.226.342-.456.512-.687.275-.378.536-.735.79-1.017.096-.109.194-.216.289-.317l.188.029c.686.108 1.374.216 2.053.341.681.12 1.352.286 2.011.496.454.148.696.265.821.338.003.111.003.252.003.366l.001.051c0 .308-.024.535-.075.692-.071.217-.144.432-.216.646-.207.606-.419 1.231-.596 1.913l-.044.127c-.333.942-.953 2.695.154 4.206.62.847 1.597 1.312 2.679 1.275 1.767-.06 2.727-1.408 3.087-1.916.021-.027.04-.055.058-.084.518-.601.866-1.227 1.138-1.758.247-.481.615-.994 1.006-1.537.115-.161.231-.321.344-.483.413-.585.772-1.175 1.121-1.745l.196-.32c.496-.808 1.114-1.813 1.453-3.025.293-1.053.252-1.899.046-2.569.143-.001.287.006.428-.005 2.851-.218 5.164-2.503 5.265-5.217.021-.6684-.109-1.3328-.381-1.9432-.272-.6103-.679-1.151-1.189-1.5813a4.7762 4.7762 0 0 0-1.87-.9676 4.77268 4.77268 0 0 0-2.105-.068l-.001-.0005a3.9256 3.9256 0 0 0-.308.0751c.251-.3957.501-.7828.758-1.1532l.198-.2876c.098-.1417.194-.2824.293-.4216.185-.2626.366-.5295.548-.7965.254-.3762.495-.7304.738-1.0542.449-.5976.841-1.1935 1.22-1.77.134-.2029.264-.4028.395-.5967.085.2316.198.4529.337.6622.232.3498.532.6484.884.8774.351.229.745.3836 1.158.4543.568.0995 2.428.2271 3.526-2.0382l.008-.0163c.044-.0754.111-.1787.186-.2988.768-1.2249 1.241-2.0248 1.263-2.9986l.001-.0012Z"/><path fill="#fff" d="M182.18 110.535c-5.762 32.633-36.853 54.439-69.445 48.704-32.591-5.735-54.3399-36.837-48.5768-69.4706 5.7624-32.6329 36.8538-54.4382 69.4448-48.7033 32.591 5.7343 54.34 36.837 48.578 69.4699"/></g><path fill="#000" fill-rule="evenodd" d="M133.561 41.383c-2.896-.2863-5.712-.7833-8.533-.798-6.174-.0329-5.426-.6534-4.417 5.321.023.133.171.2441.341.4763 4.519-.3905 9.933 1.8094 12.61-4.9991l-.001-.0002Zm-16.262-.8099-14.205 3.9328c1.161 1.4525 1.947 2.4961 2.803 3.4766.323.3698.868.9075 1.212.8401 3.752-.7337 7.484-1.573 11.376-2.4173l-1.186-5.8322Zm15.406 5.895c12.901 1.6957 24.353 6.2465 34.485 14.1075-1.029-1.4868-2.112-2.8799-3.362-4.1009-6.432-6.2851-14.082-10.483-22.62-13.1484-4.266-1.3304-5.414-.9705-8.503 3.1418ZM83.1498 56.6198c1.6941-8.8148 30.2482-19.6723 47.0272-17.6358 14.963 1.8165 27.911 7.895 37.928 19.441 3.481 4.0118 6.863 8.1742 8.967 13.1108l-.739.6501c-.657-.5184-1.406-.9538-1.96-1.5669-10.963-12.1433-24.555-19.312-40.709-21.6144-.761-.1082-2.131.036-2.273.4146-.314.8429-.334 2.0776.08 2.8456.684 1.2641 1.689 2.419 2.768 3.3831 3.924 3.5068 7.952 6.8952 11.9 10.3749.864.7611 1.56 1.7129 2.334 2.5768l-.532.6819c-.604-.2992-1.3-.4899-1.798-.9141-4.596-3.9129-9.179-7.8413-13.72-11.8179-2.26-1.9774-4.252-4.1531-3.551-7.861-2.363.0363-4.438-.0492-6.475.1942-.433.0523-1.091 1.3459-1.028 2.0041.371 3.8698.943 7.7183 1.401 11.5795.093.7794-.009 1.5833-.022 2.3759l-.803.2135c-.319-.8264-.784-1.627-.933-2.4844-.649-3.7537-1.254-7.5178-1.774-11.2933-.221-1.6091-.803-2.4073-2.553-2.0343-1.283.2734-2.617.2895-3.904.5487-1.515.3044-3.422.3182-4.377 1.2597-.824.8122-.549 2.75-.764 4.1899-.32 2.1509-.798 4.1961-3.862 5.3958 1.121-3.1197 2.632-5.6273 1.248-8.8629l-14.0712 6.4317-.6145-.838c.6673-.6469 1.233-1.4934 2.0207-1.9066 3.2315-1.6947 6.5306-3.2605 9.807-4.8691.611-.2998 1.231-.5801 1.848-.8694-1.88-3.9736-2.914-4.56-6.3279-2.5002-4.0391 2.4361-7.8144 5.3209-11.6675 8.0624-.8393.5963-1.5282 1.4071-2.2859 2.1199l-.5851-.7852.0002-.0006Zm47.6172 64.9922 5.194 36.994c13.62-3.106 24.454-10.095 33.559-20.168-1.116 3.38-3.591 5.624-6.033 7.811-12.222 10.942-26.566 16.183-42.919 15.499-16.418-.685-30.1345-7.314-41.0646-19.575-5.1267-5.752-9.4242-12.038-11.1274-19.879 7.1281 14.329 17.0155 25.83 32.054 32.346-6.565-12.873-10.7591-18.794-11.628-33.28l1.0411-.351c.2884.766.7636 1.514.8376 2.3 1.2261 12.937 4.7062 17.479 10.8203 28.824 1.695 3.145 3.924 4.928 7.518 5.729 7.463 1.66 14.902 2.42 22.521 1.527 2.055-.241 2.727-.875 2.412-3.057-1.488-10.327-2.82-20.678-4.182-31.025-.153-1.17-.147-2.363-.215-3.545l1.212-.15ZM63.0546 65.7892c.5076 1.067.9851 2.1707 1.2969 3.3098.258.94.4518 1.9118.4062 2.8811-.0119.2639-.0453 1.3098-.0802 1.5943a16.8322 16.8322 0 0 1-.188 1.1812c-.0826.4254-.1626.8511-.2385 1.2771-.0515.2897-.1224.7274.2722.8085.4007.083.5813-.4476.743-.7228.272-.461.6006-.8332.9369-1.2467.3005-.3696.5973-.7405.8978-1.1101.7339-.9033 1.4091-1.8164 2.1096-2.7457.5794-.7665 2.3984-3.3204 2.5855-3.8567.1378-.3934.6355-.9075.2161-1.2854-.3386-.3043-.7278.0079-1.0222.2093-.3211.2206-.6463.4278-.9913.6095-.9611.5075-1.9543.9151-3.0577.876-.4653-.0157-1.2569-.2027-1.463-.6616-.1734-.3867-.3609-.7657-.5461-1.1473-.8601-1.7779-1.9225-3.4898-3.2546-4.9603a45.45736 45.45736 0 0 0-1.8854-1.9623c-.5539-.5422-1.281-.9495-1.9397-1.3488-.8499-.5146-1.8035-.7425-2.7232-1.0855-.7609-.2839-1.523-.475-2.3185-.6266-2.1018-.4007-4.2542-.2726-6.3706-.0548-1.167.1203-2.3371.2485-3.4769.5322-1.0781.2683-2.1348.617-3.1612 1.043-2.1585.8976-4.1134 2.1173-6.0639 3.3848-.4747.309-.9442.6222-1.3796.9853-.4604.3837-.8652.8225-1.2915 1.2423-.5043.4975-1.0487.9518-1.5567 1.445-1.4162 1.3757-2.8856 3.3571-3.9868 4.9768-1.1825 1.7386-1.9144 3.2316-2.9245 5.0766a27.99604 27.99604 0 0 0-2.4424 5.9949c-.3155 1.1409-.575 2.2995-.7851 3.4649-.0943.5216-.5589 2.6729-.6469 3.2408-.1751 1.1217-.1822 2.2506-.1783 3.3832.0042 1.0388.0366 2.0799.1414 3.114.2303 2.2575.811 4.4614 1.8622 6.4818.4485.875.9548 1.719 1.5157 2.526.6347.903 1.2887 1.807 2.0991 2.564 1.5323 1.433 3.276 2.441 5.1498 3.362 1.9045.936 3.8887 1.461 5.9852 1.756.5726.081 1.1465.152 1.7214.214.2408.025 2.1515-.136 2.3049-.146.3009-.019.5965-.091.8977-.095.5681-.015 1.1194.192 1.5378.576.2342.21.4885 1.02.4786 1.284-.0127.338-.0052.648-.1118 1.259-.0824.468-.3034.811-.4124 1.033-.1005.204-.2524.454-.2486.689.0079.44.4062 1.032 1.2105-.049.1778-.24 1.9541-2.612 2.6619-3.566.7363-.992 1.33-1.989 2.0091-3.02.3211-.488 1.7573-2.341 2.123-2.836.2568-.347.7726-1.138.914-1.577.1297-.404-.5006-.7-.9804-.567-.439.123-.8577.591-1.2164.86-.4693.352-.9692.669-1.4658.982-.9724.615-1.9921 1.279-3.0926 1.633-1.1219.362-2.278.607-3.45.732-1.1988.123-2.2967.236-3.4985.207-1.1674-.029-2.1555-.03-3.2942-.319-.2595-.067-.8649-.298-1.0798-.455-.218-.158-.4131-.4-.5851-.606-.3451-.412-.6251-.877-.8851-1.345-.4379-.778-.8323-1.579-1.1813-2.401-.8429-2.019-1.3267-4.3108-1.3918-6.4941-.0695-2.3102.4213-4.6076.8697-6.8601.4303-2.156 1.0354-4.2319 1.8815-6.2614.8102-1.9437 1.6285-3.6078 2.8055-5.3431.7542-1.1123 1.643-2.2845 2.3758-3.4109 1.1894-1.8298 2.7351-3.6093 4.1231-5.2977 1.2568-1.5284 2.5642-2.9925 4.004-4.3545 1.5993-1.5128 3.2233-3.0024 5.0413-4.2565.8968-.6184 1.82-1.2316 2.8475-1.6108.4619-.1701.9437-.3468 1.4365-.3924.5553-.0503 1.1063-.0196 1.6573.0593.5517.0791 1.1495.1677 1.661.3948.4877.2169.9671.4666 1.4277.7337.7274.4235 1.3704 1.2118 1.9303 1.8371.601.6718 1.0711 1.4321 1.5368 2.1982.4136.6798.8221 1.3603 1.1921 2.0656Z" clip-rule="evenodd"/><path fill="#000" fill-rule="evenodd" d="M80.4952 95.4901c-.3477 1.1794-.7724 2.3083-1.3231 3.4087-.7066 1.4112-1.4551 2.8162-2.3228 4.1342-.498.756-.8932 1.572-1.3874 2.331-.4788.736-1.0274 1.409-1.6123 2.064-1.0384 1.162-2.1328 2.281-3.505 3.048-1.4426.805-2.621.883-4.6233.823-1.3693-.222-2.9962-.679-3.7114-2.025-.8712-1.642-.791-3.62-.4942-5.399.2168-1.299.4877-2.618 1.0206-3.83.6743-1.534 1.4285-2.9978 2.2772-4.4409 1.5772-2.6812 3.2957-5.3306 5.4986-7.5424 1.1993-1.2049 2.6137-2.1714 4.1108-2.9709.742-.3962 1.5125-.7773 2.3589-.8794.362-.0433.7566-.0707 1.1068.0496.2015.0687.4749.1783.6588.2838.053.0304.7915.5488.9337.6925.1697.17.3287.5097.4396.7222.2033.3882.3449.7537.499 1.1624.2993.7945.3941 1.6206.4923 2.4676.1131.9685.0545 1.9667.0184 2.9384a13.36048 13.36048 0 0 1-.4352 2.9622Zm.4119 14.0379c1.3273-1.247 2.4645-2.621 3.5812-4.057.9666-1.245 1.8645-2.488 2.5476-3.911.4243-.887.8674-1.7999 1.2133-2.7198.3297-.8763.5203-1.7934.6696-2.7201.2842-1.7591.2081-3.5793-.3081-5.2866a29.10931 29.10931 0 0 0-1.0198-2.7979c-.3406-.8126-.7922-1.555-1.3047-2.2739a11.0752 11.0752 0 0 0-1.5495-1.7273c-.6591-.5999-1.2921-1.1287-2.0486-1.5973-.7672-.475-1.5765-1.0658-2.4277-1.3722-.8032-.2891-1.6568-.5428-2.4977-.6849a12.93379 12.93379 0 0 0-2.8099-.1816c-.4452.0188-.9554.0401-1.4021.0625-.4653.0239-.9283.1003-1.3843.1941-1.8402.3772-3.6805 1.1093-5.3412 1.9786-.8227.4311-1.7592.8671-2.5227 1.3958-.7491.5193-1.4414.9389-2.2038 1.4444-1.4308.9467-2.7299 2.1079-3.8713 3.3898-1.0194 1.1446-1.8918 2.1674-2.5877 3.409-.5182.9235-.8279 1.8587-1.1415 2.8069-.2958.8955-.5022 1.8173-.6306 2.7525-.2288 1.6701-.4016 3.322-.3662 5.005.0205.954.2345 1.968.41 2.908.1548.831.458 1.622.837 2.376.389.773.841 1.563 1.4052 2.224.6313.74 1.3639 1.337 2.1513 1.903.7339.528 1.5051 1.033 2.3187 1.43.4258.209 1.1349.511 1.5895.641.3865.112 1.6981.51 2.1219.61.5059.118 1.149.251 1.662.332.9835.153 1.7992.131 2.7915.006.9668-.122 1.9086-.354 2.8397-.637.467-.141.9202-.318 1.3855-.466.4233-.134.8482-.256 1.2495-.435.325-.144.6786-.304 1.0133-.426.4468-.163.8365-.356 1.2626-.564.8553-.418 1.6564-.938 2.4306-1.488.6652-.473 1.34-.963 1.9374-1.523Zm63.6969-13.2473c.521.1748.897.3808 1.228.8275.319.4301.556.8921.504 1.4461-.106 1.1273-.42 2.3017-.751 3.3817-.152.497-.361.953-.554 1.433-.073.18-.148.381-.047.565.099.181.296.237.482.158.394-.166.703-.761.934-1.099.122-.179 2.162-3.1862 2.869-4.204.382-.5558.783-1.0983 1.203-1.6266.247-.3081.554-.62.689-.9987.171-.4841-.032-1.0061-.442-1.2849-.688-.4681-4.455-.9007-5.456-1.051-.883-.1324-4.662-.7913-5.674-.9725-1.051-.187-2.091-.4401-3.15-.5839-1.096-.1474-2.176-.3497-3.27-.513-1.137-.1696-2.267-.3646-3.391-.6039-.492-.1051-.974-.2028-1.477-.2311-.212-.0123-.968-.0184-1.116.1799-.482.6396.954.8086 1.087 1.2298.096.3032-.194.8433-.313 1.1268-.184.44-.349.8894-.591 1.3026-.486.8311-.915 1.7052-1.434 2.5156-.415.6457-.855 1.2852-1.23 1.9561-.167.2982-.324.6014-.492.8988.011-.005.021-.01.031-.016-.43.653-.77 1.362-1.184 2.026-.475.762-.997 1.493-1.463 2.261-.64 1.059-1.253 2.134-1.84 3.223-.375.693-.718 1.399-1.071 2.104-.353.707-.757 1.388-1.112 2.095-.48.955-2.969 5.399-3.799 6.62-.403.593-.742 1.22-1.18 1.789-.557.727-1.331 1.087-2.175 1.378-.267.092-.558.142-.792.309-.335.24-.347.638-.009.873.303.21.706.269 1.059.344.347.076.696.145 1.042.224.882.199 8.522 1.258 8.856 1.295.194.021.387.072.58.1.247.037.529.08.766-.026.366-.164.447-.596.236-.918-.183-.28-.493-.44-.706-.689-.281-.331-.312-.755-.221-1.168.075-.339 7.971-14.232 8.007-14.297.018-.111.072-.132.162-.065.202.001.476.153.669.215.179.057.357.114.537.169.29.088.582.17.874.251.478.135.985.236 1.432.453.328.159.628.419.634.806.005.367-.088.729-.127 1.09-.035.322-.378 1.674.208 1.632.382-.027.695-.649.858-.934.182-.32.372-.635.548-.958.834-1.538 1.902-2.928 2.706-4.488.116-.223.525-.827.348-1.087-.214-.316-.685.21-.847.355-.644.576-1.29 1.205-2.059 1.608-.362.19-.779.347-1.182.415-.363.061-.694-.048-1.041-.137-.384-.098-.77-.196-1.154-.298-.584-.155-1.149-.344-1.732-.524.402-.613 2.111-3.765 2.274-4.088.501-.988 1.097-1.938 1.658-2.8928.341-.581.637-1.188.944-1.787.248-.4846.499-1.0313.828-1.4629l-.031.0251c.183-.2743.421-.7797.7-.9483.263-.1586.645-.196.942-.2161a5.216 5.216 0 0 1 1.156.0444c.38.06.757.1915 1.135.2684.824.1691 1.642.3055 2.454.5253.822.2227 1.654.415 2.473.649v.0006Zm-28.523-6.162c.659.2238 1.253.6848 1.731 1.1848.253.2649.489.5607.645.8949.09.1945.125.2996.078.5154l-.034.1541c-.124.5813-1.077 2.9359-1.26 3.1946-.281.3957-.924 1.1386-.369 1.5842.54.4344 1.104-.3014 1.391-.6916.647-.8792 1.188-1.8603 1.797-2.7674.219-.3259.405-.6736.661-.9698.172-.199.33-.411.49-.6203.339-.4463.628-.929.986-1.3599.334-.403 1.073-1.069.871-1.6603-.18-.5205-.83-.6326-1.295-.7051-.552-.0863-1.105-.0906-1.654-.1924-.562-.1052-1.129-.1732-1.694-.2535-.771-.1104-1.54-.1858-2.304-.3359-.375-.0749-.751-.1451-1.127-.2205-2.007-.4043-4.049-.6558-6.063-1.0286-2.146-.3971-4.327-.6298-6.455-1.1302-1.137-.2672-2.387-.6786-3.5752-.5751-.2536.0224-.6408.073-.6054.4158.0297.2848.3384.3703.4864.565.2628.344.4948.8886.4655 1.3194-.0323.4763-.0819.9422-.3106 1.3698-.2003.3745-.4111.744-.6253 1.1114-.4339.7452-.8524 1.4938-1.3111 2.2248-.549.8755-1.0466 1.7788-1.6138 2.6443-.7699 1.1755-1.569 2.3233-2.283 3.5339-1.2764 2.1665-2.5701 4.3165-3.8901 6.4565-.5331.864-6.3903 10.081-7.0095 10.717-.5134.528-1.1945.504-1.8567.686-.2657.073-.6015.17-.6617.488-.0686.365.2981.496.5773.567.4017.099.8143.131 1.221.199.6548.109 8.4575 1.696 8.9874 1.81.4934.107 1.349.364 1.6825.245.2502-.09.3495-.357.2706-.609-.0812-.26-.3294-.403-.5427-.544-.1814-.12-.3707-.235-.4684-.437-.1769-.362-.1454-.823-.0436-1.2.1592-.586.4251-1.174.7248-1.702.3383-.595.6754-1.189 1.0356-1.771.3464-.559 1.221-2.013 1.2705-2.079.0791-.103.4699-.71.6016-.901.7347-1.062 1.3964-2.164 2.1001-3.246.4502-.692 1.8343-2.655 2.0513-2.957.352-.489.6637-1.149 1.2175-1.426.177-.088.473-.343.654-.374.184-.032.493.105.673.142.263.052.53.097.795.148.442.085.879.19 1.321.273.182.034.365.068.546.106l.231.049c.125.027.54.037.614.128.057.07.022.357.018.464-.005.151-.029.292-.076.435-.107.325-.298.601-.456.9-.156.292-.782 1.427-.089 1.425.596 0 1.252-.724 1.607-1.138.307-.36.599-.743.874-1.13.345-.495.673-1.003.984-1.52.392-.639.85-1.293 1.027-2.033.113-.471.089-1.3893-.583-.8807-.537.4077-.867 1.0547-1.445 1.4137l.051-.022c-.34.19-.653.423-.983.628l.027-.009c-.078.045-.154.098-.236.136-.221.106-.515.085-.757.074-.322-.014-.654-.108-.976-.161-.818-.133-1.886-.199-2.389-.948-.037-.056-.073-.111-.109-.167-.087-.133-.123-.157-.071-.302.094-.2613.312-.5242.451-.7648.194-.3374.386-.6739.562-1.0206.365-.7158.733-1.4278 1.112-2.1361.978-1.826 1.997-3.6564 3.299-5.2748.543-.6729 1.089-1.336 1.649-1.9939.124-.1456.181-.2472.362-.2601.097-.0074.201.0094.299.0121.485.0145.959.0326 1.439.1103 1.602.2612 3.18.6228 4.753 1.0323l-.068-.024c.201.0601.402.1188.6.1849v-.0006Zm49.391 31.8463c.018-.139-.035-.273-.189-.306-.114-.024-.536-.617-1.31.404-.724.955-5.118 3.911-6.398 4.543-.738.365-1.496.688-2.271.966-.702.25-1.391.452-2.146.429-.691-.021-1.388-.135-2.068-.25-.856-.143-2.525-.402-2.497-.411-.338-.137-.885-.247-1.188-.567-.128-.135-.115-.575-.115-.756.001-.795.555-1.534.837-2.256.229-.587.554-1.127.845-1.684.397-.759 4.061-6.687 4.303-7.146.245-.465.52-.918.785-1.371.073-.124.134-.304.258-.34.126-.037.343.022.483.03.525.031 1.046.109 1.566.184.46.066.915.168 1.362.292.186.052.363.077.488.205.157.161.209.373.194.594-.03.482-.233 1.005-.385 1.462-.118.355-.273.694-.393 1.047-.114.333-.369.793-.201 1.138.175.358.583.302.855.1.592-.439.977-1.259 1.361-1.874.461-.736.935-1.461 1.4-2.193.764-1.202 1.704-2.33 2.317-3.621.132-.277.422-.843.262-1.154-.192-.372-.672-.055-.898.099-.8.54-1.343 1.351-2.057 1.985-.35.311-.789.594-1.249.699-.472.106-.936.002-1.4-.097-.598-.128-1.202-.226-1.803-.343-.329-.063-.659-.107-.991-.151.792-1.142 4.38-6.022 5.374-7.352.447-.595.862-1.215 1.316-1.805.473-.614.911-1.279 1.428-1.857.268-.3 1.048-1.1511 1.283-1.2752.098-.0529.7-.0309.816-.0441.154-.0177.386.0598.538.0836.82.1294 1.643.2553 2.459.4055.799.1422 1.588.3372 2.361.5842 1.01.328 2.183.846 2.572 1.926.17.473.165.966.167 1.463.001.532-.047 1.056-.214 1.565-.265.811-.563 1.606-.774 2.435-.099.391-.885 2.091.009 2.061.508-.018.833-.694 1.12-1.027.308-.359.546-.776.766-1.206.427-.835 1.01-1.586 1.549-2.35.431-.612.824-1.274 1.216-1.912.445-.726.906-1.478 1.137-2.305.117-.417.219-.967-.13-1.3029-.297-.286-2.638-.5606-3.376-.686-.819-.1384-1.635-.29-2.457-.412-.33-.0493-7.746-1.3611-8.734-1.5588-.876-.1757-6.15-1.3776-6.588-1.525-.226-.0757-.69-.3136-.844.0215-.042.0877-.06.1848-.051.2815.015.025.057.1685.09.219.122.1882.32.58.341.7045.037.2289.052.4567.03.6875-.032.3732-.222.5716-.442.8565-.426.5488-.859 1.0916-1.271 1.6514-.925 1.2558-1.766 2.5668-2.642 3.8558-.956 1.407-2.012 2.745-2.947 4.164-.693 1.053-1.315 2.169-1.925 3.27-.457.825-1.008 1.578-1.523 2.364-.41.635-.8 1.281-1.17 1.939-.442.777-.901 1.547-1.475 2.235-.362.435-3.314 5.303-3.625 5.926-.146.303-.306.598-.478.886-.187.304-.357.752-.705.906-.464.202-.934.39-1.41.564-.279.103-.599.176-.807.404-.292.318-.181.739.199.905.61.266 1.376.265 2.034.337.694.075 1.375.198 2.059.332 1.262.246 10.282 1.762 11.873 1.952.692.084 1.381.171 2.064.312.725.15 1.456.227 2.171.422.924.248 1.857.459 2.798.634.353.067.676.032.988-.166.301-.19.897-1.297 1.033-1.565.194-.38 1.253-2.62 1.672-3.313.484-.802 2.335-4.07 2.368-4.348ZM91.1183 66.6234c-.5148 1.4163-1.9029 2.3418-3.3608 2.5892-.5258.0893-1.002.0331-1.5247-.0093-.4191-.0339-.8478.0041-1.2622-.0517-.435-.0584-.8697-.1293-1.3083-.16.7734-.948 1.4282-2.005 2.1412-2.9996.5933-.827 1.171-1.7446 1.9937-2.3685.3525-.2678.9225-.5649 1.3696-.5022.5237.0727.9663.2017 1.4023.5056.4428.3094.7307.6928.7995 1.2356.0763.6015-.0753 1.1877-.2503 1.7609Zm-3.7464 5.6626c-.282.7833-.6449 1.535-1.083 2.243-.4713.7572-1.171 1.407-2.0261 1.6859-.8154.2649-1.787.3485-2.6387.2779-.7569-.063-1.4939-.2976-2.244-.4135.6629-1.3544 1.4437-2.6843 2.2574-3.9528.4177-.6516.7563-1.3586 1.1895-1.9955.0984-.144.1693-.3284.3263-.3542.1167-.0191.3228.0487.4442.0664.5352.0815 1.072.1518 1.6101.2107.5457.0579 1.2929.055 1.7144.4519.5175.4877.6345 1.114.4499 1.7802Zm7.6296-6.5335c-.0411-.2978-.0846-.6069-.2303-.8675a7.41823 7.41823 0 0 0-.4834-.7824c-.3748-.511-1.0104-.7798-1.5886-.9844-.7442-.2632-4.4548-.9208-4.9608-1.0149-.5728-.1077-1.1425-.2247-1.7166-.3205-.7508-.1245-1.4941-.2865-2.2495-.3823-.298-.038-1.4068-.3118-1.0699.2619.0262.0453.0722.0827.1029.141.043.0779.0627.1805.0928.2643.0446.1238.0919.2459.1401.3676.117.2991.1637.4641.0095.7569-.2687.5112-.688.9636-1.0377 1.4191-.2157.2799-.4305.5593-.645.8397-.3708.4838-.7269.9722-1.0637 1.4802-.5498.8293-1.1633 1.61-1.7181 2.4345-.5997.8913-1.1639 1.815-1.7958 2.6842-.5369.7371-1.1149 1.4451-1.6506 2.1826-.1851.256-.3476.528-.5169.7945-.2922.4592-.8166.5004-1.2706.7113-.1932.0898-.2466.3119-.0421.4285.1021.0585.3021.0724.4182.0913.4234.0698.8523.1001 1.2763.1598l.3681.0502c.0448.0062.1124.0022.152.021.1014.0485 1.5476.2969 1.8018.3437.2363.0445 2.0247.3264 2.248.3636.2889.0449.5761.0997.8612.1642.8747.2066 1.7326.4376 2.6223.5744 1.2703.1955 2.5844.4992 3.8755.4553.5268-.0228 1.051-.0867 1.5679-.1911.2776-.0544.5379-.1416.7624-.3176.0931-.0724.3223-.193.394-.288.0706-.0906.4464-.5369.6007-.7023.1875-.2014.2884-.4774.4352-.7105.2215-.3513.3853-.7731.5224-1.1612.4488-1.2682.6811-2.5798-.0685-3.7841-.2968-.4767-.7145-.8053-1.2166-1.0488.3866-.0111.8154-.1355 1.1821-.2353.6927-.1878 1.3692-.5303 1.9676-.9238 1.0497-.691 2.1148-1.9195 1.9231-3.2754l.0006.0003Zm18.5915.9091c.167-.0949.32-.2825.265-.4844-.058-.2098-.284-.1886-.469-.2329-.497-.1174-1.888-.3347-1.999-.3711-.264-.0874-.642-.1238-.909-.1994-.408-.1157-.967-.25-1.392-.1365-.367.0974-.457.4153-.182.7109.32.3446.898.3795 1.262.6779.533.4362-.226 1.4296-.454 1.894-.245.4985-2.775 4.5291-3.392 5.4073-.564.8041-1.089 1.623-1.753 2.3513-.698.7655-1.469 1.4469-2.368 1.9673-.8.4639-1.891.9592-2.8178.571a1.96301 1.96301 0 0 1-.5843-.3943 7.4029 7.4029 0 0 1-.2257-.2226c-.0745-.0753-.2001-.8129-.1607-.9522.0655-.2312.1347-.4615.2078-.6909.2653-.832.7111-1.8014 1.0976-2.6547.3961-.8753.8081-1.7505 1.2541-2.6015.583-1.1129 1.23-2.1933 1.856-3.2835.189-.3316.403-.6457.612-.9652.212-.3248.422-.7255.767-.9316.395-.2365 2.114-.3142 1.653-1.141-.163-.2919-.533-.336-.827-.4045-.26-.0604-.53-.0967-.803-.1645-.841-.209-1.713-.2937-2.565-.4517-.625-.1156-1.215-.268-1.8471-.3452-.2105-.0258-.8262-.1856-.8892.1516-.016.0861.0296.1539.0162.239-.0141.0848.308.4799.4445.6101.062.0598.2486.238.2769.2676.0475.0511.0811.1607.0967.2255.0394.1606.0144.1812-.0787.333l.0321-.04a34.32275 34.32275 0 0 0-1.7328 2.8775c-.3216.6011-.6202 1.2143-.9515 1.8101-.2505.4524-.5263.8917-.7608 1.3526-.5511 1.0877-1.0986 2.2144-1.5432 3.3499-.2461.6274-.4527 1.3-.3717 1.9813.0787.661.4223 1.2269.9203 1.6595.4267.3718.9122.6546 1.421.9002.3284.1574.658.234.9816.3825.2545.1166 1.0376.3196 1.1598.3299.1744.0139.3462.0547.522.065.35.0208.7469.0835 1.0959.0461.679-.0729 1.347-.1225 1.976-.3914 2.035-.8666 4.355-3.6679 5.612-6.0823.388-.7437.794-1.4785 1.193-2.2156.396-.732.873-1.4171 1.234-2.1694.156-.3248.308-.6512.462-.9774l.265-.5484c.061-.1283.225-.5076.34-.5971.185-.1451.585-.0841.827-.1301.426-.0789.847-.1638 1.226-.3811v-.0006Zm18.117 3.2999c-.159-.4205-.937-.4337-1.298-.5074-.583-.1191-1.166-.2405-1.755-.3278-.533-.0798-1.042-.1585-1.567-.2838-.4-.096-.798-.198-1.202-.2758-1.603-.3071-3.239-.4425-4.844-.7495-.407-.0778-.815-.1559-1.222-.2351-.784-.1534-1.567-.203-2.356-.2998-.499-.062-.997-.1286-1.496-.1838-.213-.023-.425-.0787-.626.001-.204.08-.405.2472-.568.3925-.205.1846-.358.3779-.517.6017-.164.2304-.406.4024-.585.6329-.215.276-.581.928 0 1.0438.3.0607.623-.1842.866-.3299.238-.1429.469-.2954.697-.4518.554-.3782 1.069-.7232 1.752-.7698.628-.0441 1.273.0578 1.889.1649.294.0511.587.1087.881.158.157.0261.782.0369.851.1648-.096.4331-.538.8492-.815 1.185-.356.4356-.696.8834-1.021 1.3424-.649.9063-1.277 1.83-1.897 2.757-.586.8751-1.154 1.7624-1.702 2.6614-.204.3353-.422.6625-.628.9963-.184.2987-1.471 2.2508-1.922 2.9264-.298.4452-.668.8233-1.189.989-.384.1216-.859.1147-1.153.4302-.426.4547.061.8204.502.9169.532.116 1.097.1378 1.638.1821.937.0773 1.878.2006 2.802.378.683.1315 1.359.2975 2.045.4154.367.0634.726.1789 1.095.2341.516.0779.963-.2677.722-.8169-.14-.3165-.569-.5786-.652-.9039-.098-.3824.177-.8054.354-1.1169.262-.4616.554-.8971.839-1.3447.744-1.1685 1.465-2.3534 2.25-3.4945.996-1.4498 2.05-2.865 2.985-4.3568.254-.4057.522-.7996.816-1.1773.175-.223.354-.4433.536-.6608.087-.1053.247-.4026.383-.4588.048-.0207.131.0142.19.028.296.0692.594.1295.891.1936.459.0996.907.2028 1.371.2684.262.0355.519.0986.768.1884.208.0771.248.1515.254.3788.01.4315-.231.8541-.286 1.2828-.061.4739.335.8465.629.3484.259-.4386.542-.8699.8-1.3129.177-.3033.646-.8227.495-1.2042Zm23.514 4.4648c.095.2303.143.4586.162.707.017.2192-.035.5413.12.7221.36.4178.764-.3226.952-.5522.254-.3098.884-.8924.773-1.3402-.06-.2384-.271-.247-.471-.2944-.271-.0619-.535-.1583-.804-.2288-1.148-.2987-11.942-1.9688-13.049-2.1255-.203-.0281-.406-.0565-.608-.0948-.041-.008-.133-.0158-.175-.0356-.046-.0234-.566-.083-.696-.0415-.203.0645-.373.114-.415.3562-.045.2678.158.4863.363.624.106.0704.436.1771.473.2858.047.1416-.186.5221-.246.6486-.135.2894-.273.5749-.393.8716-.783 1.9082-1.912 3.6604-2.958 5.4293-.297.5024-.535 1.0369-.84 1.5333-.297.4837-.589.9703-.88 1.4572-.254.4237-.511.8551-.798 1.2566-.161.2245-.692 1.1107-.865 1.3292-.203.2571-.36.3263-.674.4001-.247.0578-.501.1172-.732.2252-.421.1986-.671.6567-.141.8884.459.2013.988.2622 1.469.3974.344.0971 5.147.7186 5.174.7364.203.1233.445.077.545-.1564.155-.3632-.198-.6463-.459-.8269-.152-.1049-.28-.1454-.285-.3234-.006-.2132.259-.561.357-.7436.251-.4674.51-.928.773-1.3886.367-.6436.753-1.2743 1.141-1.9049.419-.6791.831-1.3591 1.239-2.0445.105-.1771.215-.3517.327-.5238.045-.0694.114-.2313.179-.2737.1-.0648.3.0055.433.0269.607.1 1.216.1842 1.823.2855.544.0896 1.091.1676 1.639.2342.367.0665-.218.8587.083.9976.315.1449.574-.2754.753-.464.208-.2184 1.241-1.5545.71-1.6029-.321-.0292-.513.3098-1.204.2626-.393-.0266-.686-.0954-1.074-.1414-.885-.1053-1.731-.3312-2.587-.5697.307-.474.628-.937.924-1.4183l-.034.0434c.531-.7771 1.006-1.5906 1.522-2.378.386-.5888.907-1.7154 1.72-1.7244.272-.0036 2.919.331 3.453.4451.596.127 3.128.5764 3.181.6384.036.0411.069.3209.1.3954Zm11.487 3.2769c.511-.664 1.445-.5031 2.165-.7412.26-.0859.594-.2436.662-.5407.036-.1628-.031-.309-.142-.4216-.047-.0483-.143-.1358-.218-.1424-.089-.0079-.546-.0483-.701-.0884-.19-.0496-3.701-.5196-4.585-.6476-.814-.1173-3.292-.6314-3.743-.6239-.128.0026-.478-.0955-.636.0004-.073.0659-.103.1323-.078.0938-.047.0713-.064.1138-.053.2084.008.0631.077.1443.119.1872.192.2019.36.3923.569.5717.267.2295.449.3251.398.7209-.052.4058-.262.8062-.447 1.1652-.604 1.1722-3.377 5.7718-4.125 6.9603-.331.5255-1.872 3.2053-2.199 3.5156.117-.1149-.091.0621-.145.0948-.112.0694-.234.1268-.353.1834-.312.149-.637.2426-.96.3638-.295.1102-1.429.4415-.924.9512.215.2168 3.2.6409 3.86.8119.637.1642 4.257.6899 4.559.7502.236.0465.499.1374.694-.068.441-.4693-.339-.7988-.629-1.0068-.049-.0351-.149-.0881-.188-.1414-.07-.0939-.065-.0816-.024-.214.025-.0829.052-.1649.083-.2459.095-.2538.222-.4976.353-.7343.281-.5092.537-1.0318.841-1.5273l-.028.0298c.552-.8107 2.196-3.7128 2.552-4.317.507-.8605.992-1.7341 1.564-2.5531.594-.8509 1.126-1.7745 1.759-2.5944v-.0006Zm7.886 4.972c.635-.9641 1.157-1.9835 1.833-2.9218.28-.3878.522-.7989.79-1.1942.087-.1278.169-.2589.266-.3798.049-.0602.227-.3053.313-.3401.198-.0783.425-.0311.969.1902.51.1687 1.085.5091 1.339 1.0203.257.5164.147 1.1867-.01 1.722-.115.3915-.341.7026-.574 1.0285-.304.4259-.619.8279-.998 1.1886-.225.2128-.462.4124-.698.6114-.116.0975-.231.1943-.349.2889-.066.0529-.299.2899-.379.2851-.132-.009-.435-.3323-.563-.4125-.163-.1018-.361-.2603-.536-.339-.526-.2393-1.011-.3813-1.528-.5614.045-.0598.086-.1219.125-.1862Zm7.641 10.2883c.03-.1689-.001-.3948-.19-.4501-.198-.0569-.372.1507-.473.2921-.255.3551-.262.7798-.691 1.0125-.328.1775-.892.2271-1.246.1861-.438-.0513-.692-.5177-.848-.9178-.6-1.5274-.155-2.9841-.194-4.5535-.03-1.1933-.404-2.3234-.92-3.3846.796-.0814 1.592-.2333 2.349-.5013.736-.2601 1.503-.4546 2.199-.8186 1.153-.6033 2.092-1.5166 2.348-2.8299l.016-.0922c-.04.2343.015-.1005.017-.1219.009-.0684.013-.1372.014-.206 0-.1737-.019-.3468-.056-.5163-.083-.3947-.227-.7736-.429-1.1227-.38-.635-1.037-.9754-1.709-1.2233-.214-.0791-.425-.1574-.652-.1897-.118-.017-.779-.1346-.987-.1817-.732-.162-8.597-1.4147-8.673-1.4447-.151-.0595-.301-.0161-.458.0258-.306.0811-.236.3293.017.4593.252.1307.546.1922.805.3196.149.0725.297.0799.287.2463-.008.1104-.118.2754-.166.3817-.128.2907-.277.5669-.431.8443-.46.8258-.979 1.6237-1.486 2.4194-.435.6827-1.915 3.0804-2.236 3.5912-.297.4738-2.518 4.2885-2.977 5.0276-.144.2317-.29.4593-.454.6767-.141.1841-.307.3471-.494.4843-.127.092-.207.1098-.358.1849-.152.0758-.481.2146-.458.3902.013.1069.087.1284.165.1591.12.0482.286.0851.416.1176.251.063.511.0987.767.1378.482.0728 2.7.5379 3.329.6897.327.0794 1.585.3532 1.694-.0743.068-.269-.239-.3983-.365-.5905-.164-.249-.193-.4884-.128-.7809.125-.5634.533-1.043.815-1.537.977-1.717 2.133-3.3576 3.273-4.9671.032-.0437.063-.0874.094-.1321.129-.1845.129-.2161.305-.081.277.2122.523.5104.645.8451.27.7407.114 1.5764.062 2.3427-.055.8178-.058 1.631-.062 2.4501-.003.7776-.107 1.5577-.058 2.334.049.7693.25 1.5443.724 2.1572.436.5642 1.063.959 1.704 1.2495.721.3276 1.452.3677 2.229.2252.682-.1246 1.486-.3456 2.022-.8122.538-.4673.772-1.0481.902-1.7208l.001.0002Z" clip-rule="evenodd"/><path fill="#000" fill-rule="evenodd" d="M198.141 87.0008c.332-.4937.658-.9852.961-1.4971.144-.2425.284-.491.417-.7401.094-.175.161-.4085-.069-.5185-.234-.1118-.332.0998-.469.2333-.195.1926-.908.4314-1.12.1349-.092-.1273-.071-.439-.084-.5975-.026-.3034-.051-.6079-.103-.9082-.128-.7126-.35-1.4149-.8-1.9999-.245-.3172-.963-.742-1.337-.892-.487-.1949-1.774-.5698-2.132-.626-.501-.0789-1.458-.132-1.959-.0438-.486.0853-2.006.6892-2.405 1.0232-.806.6751-1.257 1.5519-1.428 2.5789-.203 1.2082-.011 2.4645.377 3.6206.374 1.1149.783 2.2804 1.13 3.3642l.041.1334c-.061-.1833.002.0122.01.0431.021.0782.043.1575.063.2364.039.1549.075.3094.099.4671.043.2938.044.587.013.8808-.068.6355-.209 1.2475-.54 1.7996-.291.4854-.733.9426-1.34.9456-.677.0032-1.142-.3553-1.549-.8593-.688-.8523-1.178-1.902-1.427-2.9632-.219-.9376-.221-1.9296-.485-2.8546-.062-.2171-.132-.3136-.35-.2122-.141.0656-.768 1.0092-.862 1.1199-.573.6702-1.077 1.4614-1.521 2.2201-.141.2423-.288.4817-.437.7194-.12.1898-.189.3952-.309.5784-.087.1321-.207.245-.147.4167.096.2722.366.1897.543.0752.227-.1453.447-.303.671-.4521.401-.2662 1.027-.7372 1.544-.6588.18.0276.635.7066.805.9175.2.2501.339.6143.491.8999.24.4466.562.8704.875 1.2682.189.2395 1.007 1.0887 1.155 1.1587.316.1483.65.3018.976.4237.992.37 2.192.2498 3.222.1296 1.085-.1261 2.16-.6634 2.771-1.579.661-.9933 1.026-2.1845.856-3.3841-.083-.5776-.299-1.1156-.378-1.6903-.088-.6463-.257-1.2745-.413-1.9068-.293-1.1853-.618-2.3317-.772-3.5442-.073-.5737-.228-1.251-.096-1.8249.128-.5608.58-1.064 1.151-1.1138.247-.0213.63-.036.85.0854.284.157.537.3391.758.5748.416.4462.792.9411 1.102 1.4745.537.928.54 2.0448.445 3.0791-.029.3139-.073.6258-.093.9413-.011.1752-.067.4171.01.578.171.3621.568-.1583.686-.3427.195-.3077.399-.611.603-.9124Zm-9.105 3.1385-.012-.0383.012.0383Zm29.219-5.3734c-.036-.3278-.364-.425-.635-.4858-.438-.0958-.879-.1818-1.319-.2706-.87-.1754-4.945-.9221-6.131-1.0978-1.031-.1527-4.9-.879-5.828-.9316-.692-.0393-1.382-.1561-2.071-.2321-.303-.0339-.461.0103-.723.1746-.185.1161-.353.2725-.504.4301-.15.1573-.332.4719-.45.5956-.136.1426-.507.5728-.605.7441-.2.3466-.297.5591.067.7189.342.1506.757-.1799 1.037-.3515.375-.2297.727-.4934 1.098-.728.742-.4693 1.494-.4911 2.341-.3958.403.0454 2.321.2919 2.49.3986.181.1145-.136.4581-.246.6072-.27.3671-.576.7046-.857 1.0624-.521.6643-1.001 1.3684-1.477 2.0652-.922 1.3497-1.841 2.705-2.693 4.0997-.156.2559-.319.5048-.482.7555-.133.2025-2.18 3.5169-2.657 3.9172-.256.216-.558.361-.881.4396-.32.0782-.686.1129-.94.3489-.311.2888-.22.676.14.8485.344.1652.774.1714 1.146.21.776.0806 4.539.7849 5.698.9908.461.0813 1.514.4237 1.817-.1334.192-.3547-.076-.7217-.291-.9819-.134-.1623-.349-.3269-.373-.5401-.062-.5358.349-1.0738.618-1.5207.201-.3337.428-.6521.637-.9812.643-1.0077 1.257-2.0443 1.936-3.0283.167-.2417.331-.4858.5-.7254.444-.6296.86-1.2888 1.321-1.9045.903-1.2055 1.625-2.5326 2.582-3.699.13-.1585.261-.3159.392-.4731.028-.0335.135-.2005.187-.2227.153-.0655 2.619.5057 2.96.5984.36.0993.547.1457.525.5517-.018.3336-.178.6798-.251 1.0068-.057.2562-.123.7231.232.7873.311.0557.468-.42.591-.6387.205-.369 1.09-1.6686 1.099-2.0087v-.0002Zm-5.115 14.1043c0-1.132-1.224-1.9072-2.339-1.7375-1.014.1548-2.014 1.6776-.639 2.2048.131.0502.604.0696.638.2036.049.194-.478.3816-.606.438-.46.2029-.938.1889-1.421.3099-.174.043-.404.17-.285.375.092.158.452.265.617.324.435.156.897.227 1.359.211 1.355-.055 2.668-1.003 2.676-2.3288ZM195.139 134.38c-.894-.569-2.104-.295-2.889.322-.434.341-.806.76-.768 1.337.031.474.247.916.632 1.206.789.592 2.208.416 2.845-.305.596-.674 1.169-1.932.18-2.56Zm-.362-7.559c.016-.138-.037-.272-.19-.305-.115-.024-.536-.617-1.31.403-.724.955-5.118 3.911-6.398 4.543-.738.366-1.496.689-2.271.966-.702.25-1.391.452-2.146.43-.691-.022-1.388-.135-2.068-.25-.856-.144-2.525-.403-2.497-.412-.338-.136-.885-.247-1.188-.566-.129-.136-.115-.577-.115-.756.001-.796.554-1.535.837-2.258.229-.585.554-1.126.846-1.683.396-.759 4.06-6.687 4.302-7.146.245-.465.52-.917.786-1.371.072-.123.133-.303.256-.34.127-.037.344.023.484.03.525.031 1.045.11 1.566.185.46.065.915.167 1.362.291.186.052.363.077.488.205.157.161.209.373.194.594-.029.482-.233 1.005-.384 1.462-.118.355-.274.695-.395 1.048-.113.332-.368.792-.199 1.136.174.36.582.303.854.102.592-.439.977-1.259 1.362-1.874.46-.737.933-1.461 1.399-2.193.764-1.203 1.704-2.331 2.317-3.621.132-.278.421-.844.262-1.155-.191-.372-.672-.055-.898.099-.799.541-1.343 1.351-2.057 1.985-.35.311-.789.594-1.249.699-.472.106-.936.002-1.4-.097-.598-.127-1.203-.226-1.803-.342-.329-.063-.659-.108-.991-.151.792-1.143 4.38-6.023 5.375-7.353.446-.595.861-1.214 1.315-1.804.473-.615.912-1.28 1.428-1.857.268-.301 1.048-1.151 1.282-1.276.099-.053.7-.031.817-.044.154-.017.386.06.538.084.82.128 1.643.255 2.46.404.798.143 1.587.338 2.359.585 1.011.328 2.184.846 2.573 1.926.17.473.165.966.167 1.463.001.532-.048 1.056-.214 1.565-.265.812-.563 1.607-.774 2.435-.099.392-.885 2.092.009 2.061.508-.018.833-.693 1.12-1.027.308-.358.546-.776.766-1.206.427-.835 1.01-1.585 1.549-2.35.432-.612.824-1.274 1.216-1.912.445-.726.906-1.478 1.137-2.304.117-.418.219-.968-.13-1.304-.297-.286-2.638-.56-3.376-.685-.819-.138-1.635-.291-2.457-.413-.331-.049-7.746-1.361-8.734-1.559-.876-.175-6.15-1.377-6.588-1.525-.226-.075-.689-.313-.844.022-.042.088-.059.185-.051.281.015.026.057.169.09.219.122.189.32.58.341.705.038.229.052.457.03.687-.032.374-.221.572-.442.857-.425.549-.859 1.092-1.271 1.651-.925 1.255-1.765 2.568-2.642 3.857-.956 1.406-2.013 2.745-2.947 4.164-.693 1.053-1.314 2.168-1.925 3.27-.457.824-1.008 1.577-1.523 2.364-.41.634-.8 1.28-1.17 1.938-.443.777-.901 1.547-1.475 2.236-.362.435-3.315 5.303-3.625 5.926-.149.301-.302.599-.478.885-.187.304-.357.752-.705.906-.464.202-.935.39-1.41.564-.279.103-.599.176-.807.404-.292.318-.181.739.199.905.609.267 1.376.265 2.034.337.694.075 1.375.198 2.059.332 1.262.247 10.282 1.762 11.873 1.952.692.084 1.381.171 2.064.313.725.15 1.456.226 2.171.421.924.248 1.857.459 2.798.634.353.067.676.032.988-.165.301-.19.897-1.298 1.033-1.566.194-.38 1.253-2.619 1.672-3.313.484-.801 2.335-4.069 2.368-4.347" clip-rule="evenodd"/></g><defs><clipPath id="a"><path fill="#fff" d="m48.8409.1814 178.0689 71.80427-48.28214 119.73586L.55876 119.91726z"/></clipPath></defs></svg>