<svg xmlns="http://www.w3.org/2000/svg" width="371" height="371" fill="none"><path fill="#012A32" fill-rule="evenodd" d="M287.611 129.497c-12.479-3.974-25.489-4.908-38.421-6.303 4.121-.909 8.582-2.124 12.779-2.59 3.862-.424 6.16 1.167 9.795 2.433 6.488 2.265 13.735 5.017 19.375 7.648-1.169-.415-2.345-.811-3.528-1.188Zm-17.772 4.965c-13.691-2.558-27.708-3.113-41.379-5.788 3.389-1.037 5.31-1.941 8.913-1.598 5.354.508 10.773 1.605 16.006 2.77 7.593 1.691 15.255 3.515 22.653 5.914-2.055-.477-4.12-.91-6.193-1.298Zm.658 2.672c-.937.379-4.221-.905-5.282-1.134 1.022.195 4.683 1.376 5.282 1.134Zm-27.259-.281c-10.713-.671-21.556-1.007-32.288-.951 1.927-.72 3.767-1.622 5.644-2.464 5.133-2.301 6.025-1.935 11.149-.423 6.609 1.952 13.38 3.063 20.157 4.193-1.552-.144-3.106-.263-4.662-.355Zm-12.502 6.178c-14.79 1.122-29.38 2.914-44.144 4.567 3.152-1.273 6.183-2.893 9.194-4.458 4.648-2.412 8.217-2.072 13.398-2.074 5.503-.003 10.909.643 16.38 1.265 1.35.155 6.635.588 5.172.7Zm-22.789-11.238c7.897-7.668 16.955-14.813 26.236-20.786 5.89-3.791 12.296-8.072 19.218-4.785-11.448.476-26.404 10.859-33.18 19.758-.325.421-.822.713-1.161 1.127-1.272 1.544.114 1.712-.752 2.662-.101.112-4.726 2-4.112 1.748-3.138 1.294-6.349 2.381-9.491 3.657 1.063-1.145 2.141-2.273 3.242-3.381Zm44.049-18.372c-7.773 6.5-16.205 9.96-25.566 13.221 8.549-5.498 17.121-9.995 26.518-13.933-.318.237-.636.473-.952.712Zm9.671 2.23c1.62-.519 2.343-.385 2.704 1.539-4.187-.159-6.175.415-10.131 1.375 2.406-1.142 4.887-2.116 7.427-2.914Zm5.137 1.049c-.291-.528-.416-1.536-.619-2.051 3.108-.051 5.748.606 8.388 2.236-.874.008-7.553.78-7.769-.185Zm-126.031 72.151c22.721-2.806 44.512-3.539 67.331-1.315-17.191 1.507-34.455 4.962-51.372 8.316-13.582 2.693-27.355 4.147-40.976 6.581 2.524-2.627 4.884-5.41 7.455-7.999 4.466-4.495 11.157-4.782 17.562-5.583Zm78.115 6.691c4.102-.42 8.194-.929 12.274-1.527 4.435-.655 11.509-3.579 15.972-2.698-24.364 7.233-50.693 10.567-75.739 14.643-10.411 1.695-21.01 4.172-31.096 7.315-14.561 4.535-30.985 4.513-44.8822 10.884 4.25-4.454 8.9052-10.825 13.7472-14.447 3.519-2.635 9.357-2.854 13.543-3.407 6.894-.909 13.821-1.616 20.733-2.36 25.159-2.711 50.279-5.771 75.448-8.403ZM91.4775 219.667c-2.0442 2.25-4.0338 4.549-5.9671 6.894 3.5093-16.46 3.3517-33.818 5.3284-50.527 1.118-9.448 2.167-19.002 3.6703-28.388 1.3292-8.288 1.6833-19.58 6.1269-26.74 3.316 3.08 5.767 6.349 5.108 10.826-.847 5.758-3.327 11.291-4.48 17.003-1.2963 6.419-2.1738 12.952-2.975 19.45-1.2324 9.994-1.5201 20.16-.992 30.208.1427 2.825.3242 5.647.5444 8.467.0966 1.23.7338 3.327.4622 4.477-.6632 2.828-4.6878 5.962-6.8261 8.33Zm24.5025-68.531c1.948-9.249 3.135-19.995 7.187-28.665 2.248-4.818 4.411-6.533 7.77-1.329 2.398 3.714-1.369 11.866-2.556 16.534-3.367 13.245-5.145 26.835-7.373 40.303-.581 3.529-.754 7.019-1.13 10.552-.313 2.929-.232 2.755-1.919 4.96-1.085 1.425-2.796 2.635-4.104 3.885-3.429 3.277-6.906 6.511-10.299 9.826 5.163-18.472 8.484-37.32 12.424-56.066Zm254.021 42.008c-3.129-4.161-7.097-7.913-11.156-11.129-5.624-4.459-12.51-7.067-18.126-11.355-4.723-3.61-8.624-8.414-13.451-12.07-7.667-5.802-15.559-10.628-24.538-14.114 11.436 3.902 22.403 8.599 31.563 16.696.774.686 7.484 9.277 8.872 8.456.95-.554-3.076-6.772-3.915-8.221-6.19-10.647-18.893-17.46-28.931-24.299-11.337-7.722-23.716-12.055-36.633-16.326 11.735.648 21.622 3.662 31.452 10.265 4.836 3.245 9.309 7.037 14.293 10.051 4.418 2.672 8.662 5.136 12.475 8.722 4.271 4.019 7.702 8.399 10.536 13.533 1.065 1.932 6.267 13.625 6.407 6.197.07-3.66-4.553-8.875-6.424-11.52-3.155-4.455-6.814-8.468-10.644-12.348-6.515-6.594-12.733-13.438-20.466-18.641-4.398-2.961-9.004-5.306-14.036-6.997-3.886-1.307-7.875-2.246-11.953-2.708-3.872-.438-4.245-.392-7.326-2.392-2.648-1.721-4.908-3.562-7.871-4.789-3.019-1.252-5.589-1.431-7.835-3.139-2.65-2.019-3.678-4.387-7.097-5.651-3.144-1.163-6.36-.907-9.64-.645-10.848.864-21.861 3.614-30.835 10.03-7.931 5.672-13.324 14.723-17.158 23.548-2.117 4.869-.68 4.686-6.365 7.485-5.977 2.944-11.919 5.836-17.734 9.12 9.587-11.917 17.923-25.111 28.434-36.279 5.62-5.965 11.132-12.028 16.751-17.99 1.659-1.7568 14.761-14.4115 7.402-13.9625-1.702.1028-4.261 2.3771-5.825 3.1238-3.121 1.498-6.22 2.8255-9.105 4.7831-5 3.3936-9.082 7.6156-13.172 12.0066-10.593 11.375-20.141 23.541-25.029 38.476-1.158 3.534-1.581 7.518-3.394 10.761-1.278 2.288-2.778 3.078-5.372 4.768-4.449 2.893-8.773 5.868-12.986 9.103 10.773-15.955 17.722-33.81 26.21-50.989 10.918-22.0884 15.913-46.8778 25.096-69.6997 1.781-4.4267 3.951-9.2976 6.94-13.0654.909-1.1459 3.782-2.8637 4.033-4.3085.663-3.8114-1.918-2.7881-3.814-1.692-4.645 2.6851-9.155 8.7415-12.329 12.8239-4.62 5.938-9.298 12.3795-13.3 18.7772-13.785 22.0349-22.925 47.0405-30.516 71.7895-3.572 11.634-7.256 23.46-9.013 35.525-.848 5.825.115 5.981-4.752 9.968-5.083 4.166-9.941 8.586-14.984 12.793 4.596-9.437 7.335-21.14 10.652-31.152 3.472-10.488 7.421-20.818 10.95-31.29 5.74-17.041 10.036-34.4885 14.168-51.9723 2.195-9.2959 4.252-18.5989 6.133-27.9602 2.418-12.0298 4.877-25.9205 10.269-37.01744.805-1.6504 4.072-9.31867-.656-6.67751-2.166 1.20744-4.733 9.10915-5.839 11.23955-6.264 12.0992-11.54 24.3843-16.255 37.1606-8.357 22.6543-14.222 45.8694-20.843 69.0353-3.31-4.519-10.183-9.494-16.122-7.571-5.334 1.729-7.958 9.322-9.636 14.079-.186-3.291-4.224-9.429-7.371-9.639-1.7887-.12-4.8708 1.575-6.3665 2.282-3.6978 1.748-7.8979 3.96-10.2042 7.401-4.7264 7.058-3.8297 18.137-4.6695 26.306-2.5008 24.364-2.0527 47.888.7014 72.152.6292 5.552 1.3897 8.128-1.7693 12.504-3.6081 5-7.0865 9.916-10.6392 14.61 1.1416-2.174.11-8.819.0968-11.137-.0366-6.21.027-12.367.3493-18.572.6615-12.78-.0244-25.988-.6682-38.776-1.3257-26.348-1.2051-52.36-.3169-78.701.1861-5.5508.0612-11.0672.0272-16.6149-.0143-2.2905.7436-7.9013-2.8944-6.5599-1.0563.3891-1.8337 4.4856-2.1404 5.5246-2.8338 9.5774-3.7234 19.9382-5.0213 29.7742-1.1793 8.946-2.2566 17.907-3.004 26.897-1.436 17.271-.9618 34.042-.8744 51.342.0735 14.251 1.6186 29.744 4.2529 42.891 1.2353 6.166 3.3825 12.828 4.0079 19.042.3795 3.742-1.8105 5.129-4.3251 8.527-2.5447 3.436-5.0582 6.899-7.4868 10.418.2341-5.392-1.3028-10.967-1.6635-16.363-.3023-4.508-.5887-8.993-.9946-13.496-.3227-3.546-.6268-7.096-.941-10.645-1.6195-18.269-3.201-36.497-6.1902-54.598-4.5954-27.796-9.6081-56.362-9.4223-84.6391.0369-5.3967.2112-10.7897.2737-16.1878.0459-4.0687-.3281-8.105-.3519-12.1679-.0125-2.0721.9316-6.0789.2406-8.1435-1.9995-5.974-3.7318.7013-3.7874 3.4448-.0281 1.4455-.1147 2.8868-.1368 4.3316-.1336 9.0791-.9152 18.0339-1.3635 27.1027-.6432 13.0762-.0686 26.0872.3657 39.1572.4743 14.237.1179 28.572 1.6483 42.757 1.9739 18.283 5.9267 36.461 8.4076 54.696 1.0795 7.941 2.5853 15.795 3.4024 23.773.7619 7.457 3.4083 14.787 5.0202 21.675l-.0089-.528c.6246 2.928 1.6049 4.391.7151 7.078-.6273 1.887-2.3482 3.871-3.3789 5.605-2.1982 3.688-4.3082 7.419-6.4187 11.157 1.8705-9.488-.665-21.459-2.6721-30.779-2.2185-10.312-4.9222-20.874-8.087-30.931-2.4612-7.821-4.4977-15.509-5.241-23.65-.9902-10.842-3.9388-21.269-5.524-32.01-1.4957-10.142-4.01451-20.184-6.16115-30.223-.4836-2.26-2.64202-13.07-6.15359-8.194-.8658 1.203.1954 4.398.33143 5.642.3342 3.08.54246 6.111.68068 9.203.89613 19.631 5.00728 39.559 8.22963 58.901 2.0591 12.358 4.2397 24.761 7.2489 36.924 2.3435 9.47 3.609 19.309 6.2085 28.646 1.2467 4.479 2.5131 9.057 4.5056 13.262 1.7333 3.66 3.4807 4.682 2.8692 8.626-.8755 5.638-5.6759 11.491-7.842 16.95-1.7717 4.463-3.5783 8.934-5.2664 13.428-2.3581 6.296-4.568 12.702-6.6369 19.097-1.20083 3.704-3.53009 8.485-3.74819 12.252-.33231 5.722 2.90649 4.085 4.60729.258 1.1441-2.576 2.0575-5.347 3.1336-7.966 7.8958-19.191 15.1255-39.767 26.9152-56.986 4.9178-7.191 18.5121-8.924 26.4883-11.431 19.1879-6.039 39.9448-6.835 59.8538-9.042 16.054-1.776 31.847-3.409 47.564-7.358 2.295-.575 44.188-12.909 43.137-15.06.587 1.207-45.832 11.537-49.549 11.842-11.657.95-23.278 1.205-34.96 1.699-29.223 1.237-57.9659 1.939-84.5184 15.746 3.3506-5.27 7.3588-15.218 13.2404-17.259 11.3357-3.938 23.2827-6.481 34.703-10.321 11.872-3.986 24.063-6.656 36.005-10.35 11.928-3.69 23.83-7.513 35.939-10.616 12.172-3.119 24.746-6.369 37.394-5.968 4.868.155 9.75.586 14.597 1.044 1.831.173 16.402 2.867 8.523-.479-5.102-2.169-11.782-2.336-17.248-3.132-6.267-.91-12.275-1.718-18.61-1.668-13.794.106-27.651 3.34-40.984 6.541-15.957 3.827-32.569 7.625-47.802 13.784-13.9601 5.646-27.9921 11.065-41.9532 16.64 2.5387-3.886 5.2388-7.655 7.8801-11.472 1.2828-1.857 2.6363-4.87 4.4577-6.138 2.7798-1.937 8.6288-2.44 11.8575-3.515 12.9899-4.319 26.0399-9.392 39.3509-12.605 21.403-5.168 43.315-8.373 64.85-12.972 12.569-2.681 25.878-5.047 38.729-4.819 4.834.088 9.675-.088 14.421.933 1.679.36 3.793 1.29 5.523 1.486 5.174.58 1.335-1.909-1.804-2.997-24.879-8.613-52.302-1.727-77.38 1.778-16.585 2.315-32.959 4.677-48.794 10.382-14.591 5.255-28.5413 12.264-43.3748 16.879 3.8878-5.525 7.354-11.246 13.5656-14.286 6.8742-3.361 14.1192-4.823 21.6212-6.097 15.597-2.658 31.09-6.06 46.737-8.375 14.375-2.123 28.723-4.007 42.972-6.905 13.873-2.826 27.666-4.477 40.907-9.817 4.192-1.691 9.275-4.622 13.751-4.878 5.802-.331 12.827 1.407 18.516 2.269 13.856 2.095 28.239 4.255 41.048 10.12 12.568 5.756 21.102 14.802 30.723 24.259 3.031 2.984 6.014 6.018 9.036 9.01.673.667 4.69 5.675 5.518 5.739 5.124.384-4.542-9.772-6.21-11.853-11.527-14.381-24.001-26.375-40.959-34.21-14.452-6.678-29.561-11.021-45.321-13.245.04-2.849 11.651-2.991 11.97-5.942.421-3.935-7.704.003-9.314.487-3.058.918-6.032 2.066-9.105 2.935-7.055 1.994-14.862-.462-22.029-1.382-8.642-1.104-17.397-1.828-26.088-2.351-28.77-1.735-56.374-.781-84.319 6.928 5.015-4.392 10.246-8.566 15.546-12.608 2.063-1.573 3.636-3.014 5.974-3.752 3.948-1.247 8.636-.69 12.752-1.093 16.272-1.587 32.47-3.371 48.832-3.873 26.926-.826 55.001 4.007 80.537 12.567 12.457 4.178 24.679 8.241 35.497 15.931 2.504 1.778 4.731 3.819 7.007 5.874.941.849 6.686 7.026 6.978 6.993 2.491-.266-9.062-13.051-10.741-14.684-22.562-21.929-51.837-26.914-81.73-31.317-31.26-4.606-62.636-2.16-93.433 4.789 6.15-3.837 12.194-10.413 19.098-12.644 5.244-1.696 11.9-1.374 17.206-1.918 15.388-1.582 31.517 1.105 46.938 2.197 17.421 1.232 34.344 3.467 51.187 8.108 8.618 2.375 17.011 4.888 25.419 7.972 6.664 2.444 12.101 3.949 17.493 8.415 2.175 1.818 8.645 6.646 12.146 9.928 1.428 1.341 2.907 4.173 4.521 4.847 6.012 2.508-1.967-7.288-3.277-8.988 4.779 2.855 9.24 6.161 13.483 9.681.839.698 1.642 1.231 2.492 1.868.998.751 1.52 2.942 3.228 2.212 1.391-.598.897-2.031.233-2.938Z" clip-rule="evenodd"/></svg>