<svg xmlns="http://www.w3.org/2000/svg" width="314" height="287" fill="none"><path fill="#89B99A" fill-rule="evenodd" d="M236.619 136.652c2.711-.024 5.49 2.673 7.444 4.259-5.083-3.399-13.133-3.276-18.961-4.095-5.671-.797-11.301-1.994-16.776-3.714-.12-.036-12.26-4.012-8.149-6.294 11.372-6.379 25.455 10.408 36.442 9.844Zm-78.907-52.3233c2.137 5.2411 11.6 30.9063 2.403 32.7393-7.319 1.457-13.598-14.161-13.992-19.3807-.649-8.6902-.252-17.3617-1.464-26.0403 5.095 3.9059 10.514 6.3901 13.053 12.6817ZM68.3351 243.059c-3.5094 4.335-7.0564 8.666-10.874 12.733 4.0102-4.97 7.8355-9.965 12.3444-14.499l-1.4714 1.766h.001ZM304.173 42.9015c-1.925-2.4822-9.445.5503-11.598 1.0372-5.905 1.3325-12.297 2.5171-17.695.1805-4.631-1.1638 2.865-9.1943 4.038-12.2663.823-2.1538 2.539-7.6141 1.113-9.81-3.057-4.7042-9.455.8094-12.641 2.9823-4.666 3.1836-6.596 5.2448-5.789-.5985.869-6.281 7.452-16.86039.792-22.42439-5.674-4.73835-14.491 4.25906-17.918 7.87375-6.464 6.80674-9.464 14.50664-10.843 23.67154-.322 2.1366-2.796 14.7718-4.968 12.5456-4.333-5.5687-.903-13.7445-4.324-19.7454-1.946-3.4104-4.624-5.101-6.259-8.9382-1.615-3.7883-3.246-10.58025-8.468-10.99154-3.315-.25977-5.505 2.48282-6.052 5.21714-1.737 6.4118-.43 12.1849-.542 18.6781-.084 4.7513-3.207 8.3236-2.046 13.2122 1.871 7.4512 4.313 15.2656 5.576 23.0253.397 2.4322 1.739 13.5049-3.024 11.34-2.682-1.2188-2.404-11.5799-2.587-13.4008-.437-4.3508-.373-8.6928-2.992-12.4616-1.501-2.1605-3.991-2.9919-5.15-4.6878-3.423-5.0147-3.191-13.5149-6.018-19.0228-2.537-4.9421-9.258-16.9228-15.159-18.0949-8.079-1.60557-5.04 9.3928-4.513 14.2161.586 5.34 1.483 10.2105 1.009 15.4206-.415 4.5996-.086 8.3272 1.678 12.7953 3.257 8.2551 8.165 15.3749 12.283 22.8958a.63026.63026 0 0 0-.03-.0839c2.312 4.4149 4.236 9.8886 4.02 14.9935-.362 8.5575-3.324 4.2003-5.924-1.6235-3.923-8.7798-6.48-18.1683-10.356-26.9469-1.38-3.1271-3.036-6.301-5.915-8.3396-1.932-1.3674-4.322-1.0356-5.821-1.8638-5.218-2.8736-24.428-35.4344-32.494-25.7284-4.356 5.2405 6.459 16.4436 8.739 20.3637 3.641 6.261 7.505 10.581 7.136 18.0123-2.117-1.967-5.029-.9417-6.965-2.504-2.3-1.8589-2.945-5.8015-4.022-8.3797-2.961-7.0878-6.447-14.067-11.08-20.1821-14.138-18.6583-11.76 9.5481-10.36 18.8633.269 1.7869.583 4.0691.862 6.1037.722 5.3362-.519 6.2027-1.282 10.9196-1.297 8.0256 8.164 18.6133 13.053 24.3625 1.507 1.776 24.757 30.5856 14.564 30.3446-5.139-.122-13.804-14.734-16.203-19.22-3.688-6.898-6.221-20.68-13.879-24.2581-2.406-1.1237-4.393.0579-6.6217-.8288-5.2076-2.0649-8.7409-10.2177-12.5074-14.0329-7.6659-7.7642-17.0849-6.6852-10.6716 5.9113 2.5394 4.9842 3.7989 8.3105 5.3584 13.7353 1.7798 6.1884 7.3675 9.3771 9.9395 14.7985 2.1248 4.4807-1.1821 2.0837-.9906 7.4167.1609 4.428 7.0292 9.273 10.2614 11.736 4.49 3.422 24.73 14.888 20.762 21.806-3.617 6.306-15.416-3.202-18.571-6.094-7.8923-7.234-11.0398-16.999-15.4792-26.368-2.1635-4.567-4.6398-10.1099-8.1807-13.8068-3.1049-3.2387-6.6382-3.6822-10.4854-5.3562-4.4798-1.9479-24.225-12.3354-23.3147.2177.6115 8.434 12.3616 12.5183 13.8304 20.5683-5.2854-2.354-16.3483-13.0605-22.6462-7.432-6.0795 5.434 5.9843 17.163 9.6589 21.597 2.2551 2.719 17.6942 14.954 17.4342 19.54-.2723 4.787-5.8128 3.073-9.014 2.437-5.4751-1.084-54.50194-13.153-54.28396-3.161.16655 7.748 19.01876 5.126 21.45446 9.52.8956 1.614-1.0537 2.402-1.3988 4.125-1.2623 6.316.8312 8.84 7.4641 9.532-6.2991 15.097 14.5555 7.087 21.5664 4.679 4.7757-1.641 25.0955-9.071 26.5021 1.124.4732 3.428-5.266 8.828-6.244 12.181-1.8847 6.469 2.8665 10.439 9.1074 8.251 4.2942-1.503 8.1946-5.305 10.9495-8.828 1.5838-2.021 4.3816-8.674 7.023-9.135-.2632 10.951 6.1245 5.289 11.9505.583 4.358-3.519 15.214-13.088 21.691-9.282-5.072 7.038-12.001 12.643-17.541 19.289-6.063 7.281-12.373 14.08-19.3663 20.96-13.2623 13.047-26.5553 27.267-38.224 41.688-5.7078 7.054-11.8887 13.774-18.007 20.472-2.2087 2.415-16.0731 13.251-11.2145 17.653 6.5723 5.953 17.9808-16.561 22.6722-19.166 22.3019-25.367 46.0695-49.451 67.6866-75.305-.89 2.917.085 11.142 4.494 11.001-1.039 2.397-4.156 6.05-3.432 8.795 1.606 6.07 4.063.601 6.341.957 3.891.61.696 7.626-.024 10.486-3.361 13.326-3.992 27.887-4.858 41.595-.474 7.522 5.849 28.342 16.528 19.431 5.332-4.447 5.883-15.581 6.222-21.814.216-3.933-1.58-14.85 1.148-18.252 4.517 2.387 9.937 13.127 12.837 16.973 6.129 8.135 11.493 13.306 22.144 14.002 25.305 1.653-5.34-27.088-2.286-29.013 2.149-1.353 16.965 11.145 18.925 12.638 4.343 3.308 17.574 11.379 22.431 4.61 4.074-5.68-6.346-15.187-9.438-18.845-2.594-3.068-4.53-7.267-7.776-10.356-2.671-2.542-6.248-3.989-8.893-6.409-2.75-2.516-2.91-6.138-5.976-9.016-3.44-3.235-8.118-5.936-11.905-8.881-6.33-4.919-15.286-11.315-16.028-20.243 14.46 1.795 24.335 17.537 34.207 26.685 4.938 4.575 10.752 10.445 17.903 8.887 2.872-.627-.203-1.186 3.642-1.452.863-.059 2.032.446 2.868.641 5.994 1.412 11.736 3.597 17.68 5.161 3.687.971 15.516 5.287 18.821 1.74 5.993-6.434-19.883-22.598-24.457-26.182-3.461-2.709-7.624-5.026-10.89-7.839-2.998-2.581-4.006-6.025-8.038-7.925-5.22-2.461-11.289-3.306-16.731-5.153-7.32-2.486-13.414-6.131-19.507-10.816-2.524-1.94-8.649-6.115-7.325-9.627 2.131-5.64 11.739 1.567 14.461 3.111 8.061 4.577 15.604 11.869 25.572 14.878 10.311 3.115 15.607 13.247 25.101 17.783 3.43 1.638 5.361 1.794 8.977 1.127 4.023-.737 5.93-1.204 10.657-.002 4.284 1.091 24.955 7.806 23.382-1.836-.509-3.128-5.043-4.418-7.341-5.696-5.063-2.82-9.98-5.929-15.111-8.624-3.258-1.711-7.399-2.892-10.066-5.546-2.53-2.518-3.095-5.079-6.734-6.718-4.899-2.209-12.265-1.852-16.556-4.839-4.093-2.845-7.328-6.934-12.014-9.562-3.729-2.088-24.859-9.91-24.281-13.403 1.172-7.099 24.968 6.469 26.801 7.465 11.679 6.346 23.133 14.81 35.122 20.787 4.03 2.008 7.157 1.261 10.87 1.806 4.931.724 10.083 4.111 15.091 5.284 3.991.935 14.43 3.377 12.393-3.573-1.47-5.023-11.02-9.352-15.013-12.392-4.515-3.434-8.719-7.152-13.609-10.057-1.051-.626-3.369-1.417-4.14-2.281-2.131-2.397-.72-6.048-3.283-8.745 2.691 2.586 5.345 3.928 8.997 3.964.953.012 2.789-1.01 3.986-1.159 3.611-.451 7.864.759 11.48 1.169 5.08.57 30.678-.159 17.492-9.133-5.636-3.835-11.974-6.743-18.25-9.316-4.932-2.022-11.39-3.506-15.546-6.901-4.307-3.52-5.097-5.337-11.358-6.268-6.434-.955-15.512-.766-20.571-5.408-10.304-9.4585 24.014-3.109 27.663-2.188 7.372 1.862 15.342 3.322 22.88 1.656 8.404-1.856 15.364-5.841 24.203-6.244 3.942-.178 16.855.227 16.629-6.1061-.221-6.2357-14.664-6.6501-18.496-7.4184-3.96-.793-8.459-1.0634-12.265-2.2229-3.453-1.0545-6.089-3.2822-9.454-4.5813-9.54-3.6875-17.646 1.0164-27.158.5748-5.022-.2335-7.416-2.2088-2.167-5.7955 2.832-1.9391 7.381-2.1199 10.72-3.0586 5.022-1.4104 9.966-3.209 14.924-4.8381 6.69-2.2014 44.257-13.9813 34.889-25.9794Z" clip-rule="evenodd"/></svg>